<?xml version="1.0" encoding="UTF-8"?>
<svg version="1.1" xmlns="http://www.w3.org/2000/svg" width="256" height="256">
<path d="M0 0 C2.62107562 2.62107562 3.2578457 4.35669708 4 8 C3.41088867 10.07958984 3.41088867 10.07958984 2.54296875 12.2109375 C2.25832764 12.9229834 1.97368652 13.6350293 1.68041992 14.36865234 C1.45588135 14.90699707 1.23134277 15.4453418 1 16 C2.05832031 15.45472656 3.11664063 14.90945312 4.20703125 14.34765625 C22.22700432 5.31341672 41.93001009 -2.26540283 62 -5 C62.9444397 -5.13486816 62.9444397 -5.13486816 63.90795898 -5.27246094 C82.39873142 -7.65781939 101.77249337 -6.80015395 120 -3 C120.66644531 -2.86609863 121.33289063 -2.73219727 122.01953125 -2.59423828 C145.90917009 2.34287395 169.03995713 11.92291713 189 26 C190.35544922 26.94939453 190.35544922 26.94939453 191.73828125 27.91796875 C194.29041251 30.26734001 194.65837307 31.05241587 194.8125 34.4375 C194.85890625 35.29988281 194.9053125 36.16226563 194.953125 37.05078125 C195.03765312 42.36900907 195.07502685 47.68142999 195 53 C196.0209375 53.309375 196.0209375 53.309375 197.0625 53.625 C200.97009851 55.45408866 203.83857939 58.10279034 207 61 C205.45942823 65.47954386 203.91753554 69.95863206 202.375 74.4375 C202.14723877 75.0990509 201.91947754 75.76060181 201.68481445 76.44219971 C198.5590262 85.51875294 195.40054742 94.58219644 192.15625 103.6171875 C190.14221306 109.5096064 188.69808916 115.37249213 187.50463867 121.47241211 C183.50319046 141.5106588 177.12873201 161.18839457 167 179 C166.6390625 179.63969727 166.278125 180.27939453 165.90625 180.93847656 C149.02841233 210.57724878 123.06216415 237.97177641 90.12890625 249.5625 C79.42328506 251.76255426 65.75215473 241.83950758 57.0625 236.4375 C48.3819649 230.69798201 40.61269739 224.07891894 33 217 C32.38253906 216.43667969 31.76507813 215.87335938 31.12890625 215.29296875 C25.72137675 210.16018671 21.14086702 204.18782623 17 198 C17 197.34 17 196.68 17 196 C16.34 196 15.68 196 15 196 C13.89013672 194.52563477 13.89013672 194.52563477 12.6796875 192.44140625 C12.00643433 191.28765503 12.00643433 191.28765503 11.31958008 190.1105957 C10.84286865 189.26972412 10.36615723 188.42885254 9.875 187.5625 C9.38217529 186.6964917 8.88935059 185.8304834 8.3815918 184.93823242 C-2.41976677 165.72743271 -10.05268157 145.86890942 -14.5625 124.25 C-17.67542257 109.37034782 -22.84929926 95.1693587 -27.88305664 80.85253906 C-28.21078064 79.9171228 -28.53850464 78.98170654 -28.87615967 78.01794434 C-29.49665964 76.25157376 -30.1219922 74.48689063 -30.75299072 72.72424316 C-32.24582102 68.48869155 -33.44040763 64.48216747 -34 60 C-32.5433323 58.85204994 -31.08461063 57.70670581 -29.625 56.5625 C-28.81289063 55.92441406 -28.00078125 55.28632812 -27.1640625 54.62890625 C-25 53 -25 53 -23 52 C-22.51519546 47.89936163 -22.32498196 44.08617793 -23 40 C-24.76263011 37.79992884 -26.6465357 36.40536263 -28.90625 34.73046875 C-37.49416036 27.63262493 -39.80637767 11.56818406 -41.71484375 1.06640625 C-42 -2 -42 -2 -40.8125 -3.875 C-30.22627725 -10.44575895 -9.99535708 -6.03493258 0 0 Z " fill="#023789" transform="translate(42,6)"/>
<path d="M0 0 C2.62107562 2.62107562 3.2578457 4.35669708 4 8 C3.41088867 10.07958984 3.41088867 10.07958984 2.54296875 12.2109375 C2.25832764 12.9229834 1.97368652 13.6350293 1.68041992 14.36865234 C1.45588135 14.90699707 1.23134277 15.4453418 1 16 C2.05832031 15.45472656 3.11664063 14.90945312 4.20703125 14.34765625 C22.22700432 5.31341672 41.93001009 -2.26540283 62 -5 C62.9444397 -5.13486816 62.9444397 -5.13486816 63.90795898 -5.27246094 C82.39873142 -7.65781939 101.77249337 -6.80015395 120 -3 C120.66644531 -2.86609863 121.33289063 -2.73219727 122.01953125 -2.59423828 C145.90917009 2.34287395 169.03995713 11.92291713 189 26 C190.35544922 26.94939453 190.35544922 26.94939453 191.73828125 27.91796875 C194.29041251 30.26734001 194.65837307 31.05241587 194.8125 34.4375 C194.85890625 35.29988281 194.9053125 36.16226563 194.953125 37.05078125 C195.03765312 42.36900907 195.07502685 47.68142999 195 53 C196.0209375 53.309375 196.0209375 53.309375 197.0625 53.625 C200.97009851 55.45408866 203.83857939 58.10279034 207 61 C205.45942823 65.47954386 203.91753554 69.95863206 202.375 74.4375 C202.14723877 75.0990509 201.91947754 75.76060181 201.68481445 76.44219971 C198.5590262 85.51875294 195.40054742 94.58219644 192.15625 103.6171875 C190.14221306 109.5096064 188.69808916 115.37249213 187.50463867 121.47241211 C183.50319046 141.5106588 177.12873201 161.18839457 167 179 C166.6390625 179.63969727 166.278125 180.27939453 165.90625 180.93847656 C149.02841233 210.57724878 123.06216415 237.97177641 90.12890625 249.5625 C79.42328506 251.76255426 65.75215473 241.83950758 57.0625 236.4375 C48.3819649 230.69798201 40.61269739 224.07891894 33 217 C32.38253906 216.43667969 31.76507813 215.87335938 31.12890625 215.29296875 C25.72137675 210.16018671 21.14086702 204.18782623 17 198 C17 197.34 17 196.68 17 196 C16.34 196 15.68 196 15 196 C13.89013672 194.52563477 13.89013672 194.52563477 12.6796875 192.44140625 C12.00643433 191.28765503 12.00643433 191.28765503 11.31958008 190.1105957 C10.84286865 189.26972412 10.36615723 188.42885254 9.875 187.5625 C9.38217529 186.6964917 8.88935059 185.8304834 8.3815918 184.93823242 C-2.41976677 165.72743271 -10.05268157 145.86890942 -14.5625 124.25 C-17.67542257 109.37034782 -22.84929926 95.1693587 -27.88305664 80.85253906 C-28.21078064 79.9171228 -28.53850464 78.98170654 -28.87615967 78.01794434 C-29.49665964 76.25157376 -30.1219922 74.48689063 -30.75299072 72.72424316 C-32.24582102 68.48869155 -33.44040763 64.48216747 -34 60 C-32.5433323 58.85204994 -31.08461063 57.70670581 -29.625 56.5625 C-28.81289063 55.92441406 -28.00078125 55.28632812 -27.1640625 54.62890625 C-25 53 -25 53 -23 52 C-22.51519546 47.89936163 -22.32498196 44.08617793 -23 40 C-24.76263011 37.79992884 -26.6465357 36.40536263 -28.90625 34.73046875 C-37.49416036 27.63262493 -39.80637767 11.56818406 -41.71484375 1.06640625 C-42 -2 -42 -2 -40.8125 -3.875 C-30.22627725 -10.44575895 -9.99535708 -6.03493258 0 0 Z M76.83984375 60.13330078 C49.73300609 61.99181633 23.92125169 71.92414428 1.9765625 87.859375 C-1 90 -1 90 -3.4140625 91.453125 C-5.54950988 92.86541291 -6.65710869 93.81821884 -8 96 C-8.38870878 104.45781915 -6.42713767 113.05742997 -4.5 121.25 C-4.24009277 122.35972168 -3.98018555 123.46944336 -3.71240234 124.61279297 C2.78202737 151.17955022 13.67886212 179.75313999 32.9375 199.84765625 C34.81315 201.8050107 36.48938253 203.82758905 38.1875 205.9375 C48.12019002 217.32206814 62.05384083 225.57221892 75.3125 232.4375 C75.98265137 232.79223389 76.65280273 233.14696777 77.34326172 233.51245117 C81.4356769 235.56886683 84.44261536 236.66449608 89 236 C91.81760403 235.04088626 94.45580856 233.81169455 97.125 232.5 C98.24769287 231.9575061 98.24769287 231.9575061 99.39306641 231.40405273 C125.9828715 218.25728281 145.23242997 196.79511457 159 171 C159.50917969 170.08605469 160.01835937 169.17210937 160.54296875 168.23046875 C169.61823296 151.22347228 174.58144898 132.59898041 178.39257812 113.81640625 C178.91989023 111.37144144 179.53953031 108.994951 180.234375 106.59375 C181.11039444 103.05893473 181.62486057 100.58550949 181 97 C177.75822844 92.51795552 173.60856415 89.88261169 169 87 C167.58286653 86.06320578 166.16621667 85.12567964 164.75 84.1875 C155.26981197 78.04946584 145.52420844 73.06957866 135 69 C133.84886719 68.53980469 132.69773438 68.07960938 131.51171875 67.60546875 C114.04771414 61.17545148 95.33253039 58.99213816 76.83984375 60.13330078 Z " fill="#E6C502" transform="translate(42,6)"/>
<path d="M0 0 C11.05629568 8.37497846 18.36522114 18.245827 21 32 C22.52401855 47.6038717 18.518723 60.06054032 8.8125 72.1875 C0.02077423 81.77494488 -11.53440242 86.26146385 -24.26953125 87.16015625 C-36.51974935 87.60386494 -48.15678638 83.20102992 -57.625 75.5 C-67.97922654 65.7332473 -72.88168037 53.59273493 -73.4375 39.5625 C-73.08395832 26.71202844 -67.99277568 15.14031868 -59.3125 5.75 C-43.25750325 -9.38756837 -18.61060758 -11.70298943 0 0 Z " fill="#FAF9FA" transform="translate(154,80)"/>
<path d="M0 0 C0.64694824 0.31727051 1.29389648 0.63454102 1.96044922 0.96142578 C8.65728686 4.28747209 15.17529503 7.90794535 21.4375 12 C22.76587891 12.86625 22.76587891 12.86625 24.12109375 13.75 C26.95045693 17.13817711 26.32873994 19.67684458 26 24 C24.906875 23.45472656 23.81375 22.90945312 22.6875 22.34765625 C3.85020086 13.10281305 -15.52489486 5.6798743 -36 1 C-37.00417969 0.76667969 -38.00835937 0.53335937 -39.04296875 0.29296875 C-60.34456824 -4.2976085 -85.79017596 -4.07570975 -107 1 C-107.9379541 1.22042969 -108.8759082 1.44085937 -109.84228516 1.66796875 C-128.8884343 6.27487605 -146.7277089 13.17871189 -163.77197266 22.86108398 C-166 24 -166 24 -168 24 C-168.64288957 20.72710767 -168.909139 19.13088104 -168 16 C-164.85158724 12.60106837 -160.95239795 10.35171874 -157 8 C-156.03513672 7.40783691 -156.03513672 7.40783691 -155.05078125 6.80371094 C-138.2847354 -3.40760937 -120.28266747 -10.35814431 -101 -14 C-99.88882813 -14.22429688 -98.77765625 -14.44859375 -97.6328125 -14.6796875 C-64.68912714 -20.23370374 -29.84855476 -14.72036227 0 0 Z " fill="#033887" transform="translate(199,27)"/>
<path d="M0 0 C8.58 0 17.16 0 26 0 C24.6580223 12.07779927 21.69925482 20.3153168 13 29 C5.1865919 35.21335293 -2.96597287 39 -13 39 C-13 30.09 -13 21.18 -13 12 C-10.69 11.01 -8.38 10.02 -6 9 C-3.248912 6.10020454 -1.80292519 3.60585037 0 0 Z " fill="#C00814" transform="translate(142,121)"/>
<path d="M0 0 C8.58 0 17.16 0 26 0 C26.99 2.31 27.98 4.62 29 7 C31.98907097 9.36634785 34.39335097 10.79778366 38 12 C38 20.58 38 29.16 38 38 C26.56580538 38 20.02850145 35.68439256 11.33203125 28.34375 C3.02691254 19.99689702 0 11.65848981 0 0 Z " fill="#BF0512" transform="translate(89,121)"/>
<path d="M0 0 C12.79101119 1.27910112 21.63836753 4.90004598 30.25 14.375 C35.80037254 21.23755301 39 29.11844848 39 38 C34.77176232 38.23264031 30.54516663 38.37452126 26.3125 38.5 C24.51522461 38.60054687 24.51522461 38.60054687 22.68164062 38.703125 C13.95267174 38.89764241 13.95267174 38.89764241 11.14453125 36.25170898 C9.83203125 34.08984375 9.83203125 34.08984375 8.88208008 31.92163086 C7.60074363 29.13021122 5.73665985 28.22429519 3 27 C2.01 26.67 1.02 26.34 0 26 C0 17.42 0 8.84 0 0 Z " fill="#BF0714" transform="translate(129,80)"/>
<path d="M0 0 C0 8.58 0 17.16 0 26 C-3.96 27.98 -3.96 27.98 -8 30 C-10.03704624 32.69415793 -10.93501321 34.80503962 -12 38 C-20.58 38 -29.16 38 -38 38 C-38 26.23789854 -34.49756706 18.54514331 -26.3203125 10.125 C-18.66680254 3.11572488 -10.3758168 0 0 0 Z " fill="#BF0512" transform="translate(127,80)"/>
<path d="M0 0 C4.38818201 1.72867776 7.24075002 3.9876667 10.0625 7.75 C11.86927262 14.01347841 10.72480182 19.08883068 7.75 24.8125 C4.66939046 29.84152925 2.09442445 32.39652177 -3.6875 34.0625 C-9.17279658 34.4788413 -13.67569047 32.21844554 -18 29 C-21.19019191 25.24212983 -21.96743221 22.00960139 -22.125 17.125 C-20.95090268 11.07480461 -17.57500988 4.88834058 -12.59765625 1.23828125 C-8.36470962 -0.7795294 -4.58489571 -0.73860022 0 0 Z " fill="#083B85" transform="translate(210,50)"/>
<path d="M0 0 C0.33 0 0.66 0 1 0 C1.495 12.375 1.495 12.375 2 25 C4.31 25.99 6.62 26.98 9 28 C12.35630204 30.82200284 13.92891948 33.71567792 15 38 C23.58 38 32.16 38 41 38 C41 38.99 41 39.98 41 41 C32.42 41.33 23.84 41.66 15 42 C14.01 43.98 13.02 45.96 12 48 C8.77087393 52.0085703 7.34166527 52.21944491 2 54 C1.67 62.58 1.34 71.16 1 80 C-0.65 80 -2.3 80 -4 80 C-2.02 79.505 -2.02 79.505 0 79 C0 70.42 0 61.84 0 53 C-1.65 52.67 -3.3 52.34 -5 52 C-8.25 49.8125 -8.25 49.8125 -11 47 C-11.33 45.02 -11.66 43.04 -12 41 C-20.58 41 -29.16 41 -38 41 C-38 43.31 -38 45.62 -38 48 C-38.33 48 -38.66 48 -39 48 C-39 43.38 -39 38.76 -39 34 C-38.67 35.32 -38.34 36.64 -38 38 C-29.42 38 -20.84 38 -12 38 C-11.67 36.02 -11.34 34.04 -11 32 C-7.22381818 28.13799586 -5.39271344 27.07854269 0 26 C0 17.42 0 8.84 0 0 Z " fill="#F8E3E5" transform="translate(127,80)"/>
<path d="M0 0 C17.31802844 3.34934466 17.31802844 3.34934466 22 9 C23.15697704 12.97710859 23.41083866 15.05507108 21.75 18.875 C20 21 20 21 17 22 C17.226875 22.78375 17.45375 23.5675 17.6875 24.375 C18.11695428 29.3566696 16.63235458 33.33349483 15 38 C12.69 37.34 10.38 36.68 8 36 C8.33 32.04 8.66 28.08 9 24 C6.36 23.01 3.72 22.02 1 21 C-0.485 26.445 -0.485 26.445 -2 32 C-3.98 31.67 -5.96 31.34 -8 31 C-9.27002442 26.64814347 -8.64797139 24.04846839 -7.12890625 19.82421875 C-6.71962891 18.66728516 -6.31035156 17.51035156 -5.88867188 16.31835938 C-5.45103516 15.12017578 -5.01339844 13.92199219 -4.5625 12.6875 C-4.12873047 11.46998047 -3.69496094 10.25246094 -3.24804688 8.99804688 C-2.17623089 5.99460648 -1.09323432 2.99569659 0 0 Z " fill="#093B84" transform="translate(167,35)"/>
<path d="M0 0 C-0.515625 0.37125 -1.03125 0.7425 -1.5625 1.125 C-3.36319983 3.03173152 -3.36319983 3.03173152 -2.6875 6.1875 C-2.460625 7.115625 -2.23375 8.04375 -2 9 C2.07700925 10.12437693 2.07700925 10.12437693 5.9375 8.9375 C7.52971202 6.03405456 6.86084757 4.11229504 6 1 C5.34 0.34 4.68 -0.32 4 -1 C7.73487777 -0.5020163 9.81237635 -0.12508244 13 2 C12.83525352 8.60483602 11.6434427 13.15525198 7 18 C4 20 4 20 0.8125 19.625 C-0.115625 19.41875 -1.04375 19.2125 -2 19 C-0.02039491 20.97960509 3.67746834 20.229944 6.375 20.25 C7.06078125 20.270625 7.7465625 20.29125 8.453125 20.3125 C11.34758374 20.33502497 13.47251577 20.33375749 15.95703125 18.76171875 C17.26827863 16.54684022 17.36873401 15.1276361 17.3125 12.5625 C17.30669922 11.41974609 17.30669922 11.41974609 17.30078125 10.25390625 C16.9739386 7.80470873 16.21954601 6.13299083 15 4 C19.75481646 4.57634139 22.97048212 6.55068521 27 9 C26.56322666 18.43430421 23.50454346 25.17816174 17 32 C13.52678803 34.60490898 11.31770799 35.47475541 7 35 C0.98256001 31.18455744 -3.86139923 25.86134414 -6 19 C-6.04063832 17.33382885 -6.042721 15.66611905 -6 14 C-6.495 12.845 -6.99 11.69 -7.5 10.5 C-8.89538782 7.2440951 -9.31434775 5.45782522 -9 2 C-3.375 -1.125 -3.375 -1.125 0 0 Z " fill="#124281" transform="translate(14,10)"/>
<path d="M0 0 C-0.33 0.66 -0.66 1.32 -1 2 C-0.34 2.33 0.32 2.66 1 3 C0.34 5.64 -0.32 8.28 -1 11 C-6.13942384 12.28485596 -7.37835584 11.22194431 -12 9 C-11.505 9.474375 -11.01 9.94875 -10.5 10.4375 C-8.35478351 14.10224484 -8.07267197 17.85258015 -9 22 C-10.55078125 24.25390625 -10.55078125 24.25390625 -13 26 C-15.70932941 26.37319396 -17.93453971 26.51738915 -20.625 26.4375 C-21.305625 26.44458984 -21.98625 26.45167969 -22.6875 26.45898438 C-24.6640625 26.43359375 -24.6640625 26.43359375 -28 26 C-28.66 25.01 -29.32 24.02 -30 23 C-28.948125 23.268125 -27.89625 23.53625 -26.8125 23.8125 C-22.93672265 24.409853 -22.93672265 24.409853 -20.25 21.9375 C-16.43285232 16.95400164 -14.54556089 13.3621476 -15 7 C-16.98 6.34 -18.96 5.68 -21 5 C-20.01 6.485 -20.01 6.485 -19 8 C-19.1875 11.0625 -19.1875 11.0625 -20 14 C-23 16 -23 16 -26.0625 15.8125 C-29 15 -29 15 -31 12 C-30.625 8.875 -30.625 8.875 -30 6 C-30 5.67 -30 5.34 -30 5 C-31.3921875 5.061875 -31.3921875 5.061875 -32.8125 5.125 C-36 5 -36 5 -39 3 C-38.67 0.69 -38.34 -1.62 -38 -4 C-26.50351859 -7.51359456 -10.61998072 -5.43347851 0 0 Z " fill="#CBB729" transform="translate(41,5)"/>
<path d="M0 0 C2.04224637 0.11514149 4.08380159 0.24257326 6.125 0.375 C7.26195312 0.44460937 8.39890625 0.51421875 9.5703125 0.5859375 C14.47716979 1.17833713 18.82597218 1.9907017 22 6 C23.60949419 9.21898839 23.45470546 12.50946689 23 16 C21.5625 18.9375 21.5625 18.9375 19 21 C13.99743753 22.33463887 10.08619717 22.01723943 5 21 C4.67 24.63 4.34 28.26 4 32 C1.36 31.67 -1.28 31.34 -4 31 C-3.39507314 20.54936693 -1.71515417 10.31249926 0 0 Z " fill="#083B85" transform="translate(136,30)"/>
<path d="M0 0 C0 2.31 0 4.62 0 7 C-4.95 7 -9.9 7 -15 7 C-15 8.98 -15 10.96 -15 13 C-14.38125 12.835 -13.7625 12.67 -13.125 12.5 C-8.74529271 11.79924683 -4.42571011 11.92265749 0 12 C0 14.31 0 16.62 0 19 C-4.95 19 -9.9 19 -15 19 C-15 21.31 -15 23.62 -15 26 C-9.06 25.67 -3.12 25.34 3 25 C3 27.31 3 29.62 3 32 C-4.92 32.33 -12.84 32.66 -21 33 C-22.68953614 29.62092772 -22.38968468 25.78601357 -22.5625 22.0625 C-22.6049585 21.20744873 -22.64741699 20.35239746 -22.69116211 19.47143555 C-22.98084724 13.30994365 -23.09785706 7.16805282 -23 1 C-20.10425766 0.83160792 -17.20842326 0.66522615 -14.3125 0.5 C-13.08756836 0.42845703 -13.08756836 0.42845703 -11.83789062 0.35546875 C-7.88646942 0.13150156 -3.95981243 -0.06451833 0 0 Z " fill="#073A85" transform="translate(128,29)"/>
<path d="M0 0 C3.22496917 1.80598274 4.562675 2.78894616 5.8125 6.25 C5.874375 6.8275 5.93625 7.405 6 8 C2.625 8.625 2.625 8.625 -1 9 C-1.66 8.34 -2.32 7.68 -3 7 C-6.59679066 7.32326553 -6.59679066 7.32326553 -10 8 C-10 9.32 -10 10.64 -10 12 C-8.46279297 12.02126953 -8.46279297 12.02126953 -6.89453125 12.04296875 C-5.53381029 12.08989016 -4.17313459 12.13813744 -2.8125 12.1875 C-2.13896484 12.19330078 -1.46542969 12.19910156 -0.77148438 12.20507812 C3.07153457 12.37379603 4.89295606 12.91660201 7.953125 15.30078125 C10.46967576 18.6193625 10.69686185 20.07535721 10.41796875 24.0703125 C9.72867402 27.25266385 8.40083697 28.85188271 6 31 C1.05511703 33.47244148 -4.57374465 33.89235761 -10 33 C-13.1875 30.75 -13.1875 30.75 -15 28 C-14.8125 25.6875 -14.8125 25.6875 -14 24 C-11.125 23.875 -11.125 23.875 -8 24 C-7.34 24.66 -6.68 25.32 -6 26 C-2.40320934 25.67673447 -2.40320934 25.67673447 1 25 C1.59070014 23.05396726 1.59070014 23.05396726 2 21 C-0.10952797 18.89047203 -5.38745056 19.70070242 -8.36523438 19.65820312 C-11.74683178 19.51606364 -13.69134556 19.23298432 -16.421875 17.171875 C-18.65632261 14.09674413 -18.93379924 11.7734436 -19 8 C-17.7604888 4.97008373 -16.41119523 3.37264568 -14 1.1875 C-9.36447159 -0.64739666 -4.91506487 -0.67157793 0 0 Z " fill="#063A86" transform="translate(93,34)"/>
<path d="M0 0 C5.66176471 2.98529412 5.66176471 2.98529412 7 7 C3.70022305 9.02120908 1.72172513 9.09360394 -2.0625 8.5 C-6.25757094 7.79358562 -6.25757094 7.79358562 -10 10 C-10.60005094 15.20044144 -9.80131956 18.5979264 -7 23 C-5.2515605 25.02108177 -5.2515605 25.02108177 -3 26 C0.37036311 25.75925978 1.58798021 25.41201979 4 23 C4.12375 22.01 4.2475 21.02 4.375 20 C5 17 5 17 6.875 15.625 C9 15 9 15 12 15 C12.37695208 19.71190102 12.46314703 23.07370593 10.3125 27.375 C7.19020043 30.91923195 5.22444494 32.69388372 0.4453125 33.3515625 C-4.35210104 33.59858379 -7.22582194 33.45043087 -11.4375 31 C-16.70005814 24.83895632 -18.7236121 19.75659776 -18.3828125 11.5546875 C-17.8220152 7.81222387 -16.59399642 5.73052255 -14 3 C-9.53536552 -0.04406896 -5.28170037 -0.96603665 0 0 Z " fill="#063A86" transform="translate(52,49)"/>
<path d="M0 0 C5.3365228 0.87324919 5.3365228 0.87324919 7.4375 3.5625 C8.08413188 8.49306811 7.99071106 10.5667201 5.5625 14.9375 C1.85610465 19.51598837 1.85610465 19.51598837 -1.9375 19.9375 C-5.5625 19.5625 -5.5625 19.5625 -8.0625 18.125 C-10.03157737 14.76115949 -9.86229641 12.60892898 -9.23046875 8.82421875 C-7.73176639 3.74966513 -5.45884655 0.86192314 0 0 Z " fill="#ECCB02" transform="translate(205.5625,56.4375)"/>
<path d="M0 0 C1.2065625 0.2475 1.2065625 0.2475 2.4375 0.5 C4.97658116 1.26597109 4.97658116 1.26597109 7 0 C8.95549256 -0.12257461 10.91570618 -0.17552388 12.875 -0.1875 C13.92429687 -0.20167969 14.97359375 -0.21585937 16.0546875 -0.23046875 C18.93547071 -0.00504937 20.56240208 0.51035683 23 2 C20 4 20 4 18 4 C17.67 4.66 17.34 5.32 17 6 C16.67 5.67 16.34 5.34 16 5 C15.67 5.99 15.34 6.98 15 8 C15.99 8.33 16.98 8.66 18 9 C18.75 11.75 18.75 11.75 19 15 C17.4375 17.4375 17.4375 17.4375 15 19 C11.875 18.9375 11.875 18.9375 9 18 C7 15 7 15 7.375 11.875 C7.58125 10.92625 7.7875 9.9775 8 9 C8 8.67 8 8.34 8 8 C6.6078125 8.061875 6.6078125 8.061875 5.1875 8.125 C2 8 2 8 -1 6 C-1.25 3.4375 -1.25 3.4375 -1 1 C-0.67 0.67 -0.34 0.34 0 0 Z " fill="#76804A" transform="translate(3,2)"/>
<path d="M0 0 C1.67760333 4.24576418 3.34017443 8.49725773 5 12.75 C5.71542969 14.55984375 5.71542969 14.55984375 6.4453125 16.40625 C6.89648438 17.56640625 7.34765625 18.7265625 7.8125 19.921875 C8.23144531 20.99018555 8.65039062 22.05849609 9.08203125 23.15917969 C10 26 10 26 10 30 C8.02 30.66 6.04 31.32 4 32 C1.08629034 26.35307596 -1.45039597 20.67172713 -3.75 14.75 C-4.06582031 13.96109375 -4.38164063 13.1721875 -4.70703125 12.359375 C-5.00480469 11.59625 -5.30257812 10.833125 -5.609375 10.046875 C-6.0110791 9.02352051 -6.0110791 9.02352051 -6.42089844 7.97949219 C-7 6 -7 6 -7 2 C-4.35261084 0.5393715 -3.10551666 0 0 0 Z " fill="#083B84" transform="translate(67,41)"/>
<path d="M0 0 C8.06015038 -0.60150376 8.06015038 -0.60150376 12.125 2 C14.32919146 5.52670634 14.46248428 7.21516517 13.62890625 11.1953125 C13 13 13 13 11.5 15 C7.62772286 16.54891086 4.1509953 16.18313215 0 16 C0 10.72 0 5.44 0 0 Z " fill="#D8BE0E" transform="translate(146,174)"/>
<path d="M0 0 C8.17817372 -0.48106904 8.17817372 -0.48106904 11.5625 1.5 C13.60389013 5.0502437 13.77813307 8.00285328 13 12 C11.5625 14.5 11.5625 14.5 9 16 C5.91796267 16.31828269 3.11507599 16.18323976 0 16 C0 10.72 0 5.44 0 0 Z " fill="#E8C804" transform="translate(176,174)"/>
<path d="M0 0 C8.3984375 -0.1953125 8.3984375 -0.1953125 11 0 C13 2 13 2 13.1953125 5.2578125 C13.16050781 7.17207031 13.16050781 7.17207031 13.125 9.125 C13.10695312 10.40632812 13.08890625 11.68765625 13.0703125 13.0078125 C13.04710937 13.99523437 13.02390625 14.98265625 13 16 C12.01 16 11.02 16 10 16 C9.67 14.35 9.34 12.7 9 11 C7.35 10.67 5.7 10.34 4 10 C4 11.98 4 13.96 4 16 C2.68 16 1.36 16 0 16 C0 10.72 0 5.44 0 0 Z " fill="#CCB615" transform="translate(126,174)"/>
<path d="M0 0 C4.75481646 0.57634139 7.97048212 2.55068521 12 5 C11.6381718 10.61457551 11.05319616 15.11488614 8 20 C7.34 20.33 6.68 20.66 6 21 C6 20.34 6 19.68 6 19 C5.05125 19.04125 4.1025 19.0825 3.125 19.125 C0 19 0 19 -2 17 C-1.34 16.525625 -0.68 16.05125 0 15.5625 C2.55840886 12.28453865 2.40509349 10.2574601 2.3359375 6.21875 C1.97100523 3.80849966 1.19824206 2.10890602 0 0 Z " fill="#0A3D88" transform="translate(29,14)"/>
<path d="M0 0 C-0.515625 0.37125 -1.03125 0.7425 -1.5625 1.125 C-3.36319983 3.03173152 -3.36319983 3.03173152 -2.6875 6.1875 C-2.460625 7.115625 -2.23375 8.04375 -2 9 C2.07700925 10.12437693 2.07700925 10.12437693 5.9375 8.9375 C7.52971202 6.03405456 6.86084757 4.11229504 6 1 C5.34 0.34 4.68 -0.32 4 -1 C7.73487777 -0.5020163 9.81237635 -0.12508244 13 2 C12.91253716 3.43861294 12.80434652 4.87597508 12.6875 6.3125 C12.62949219 7.11300781 12.57148438 7.91351563 12.51171875 8.73828125 C11.91793306 11.36272334 11.04219706 12.30820672 9 14 C8.34 13.67 7.68 13.34 7 13 C4.72433301 12.93090954 2.4670476 13.00251604 0.19140625 13.0625 C-2 13 -2 13 -5 12 C-5.33 12.66 -5.66 13.32 -6 14 C-9.42857143 6.71428571 -9.42857143 6.71428571 -9 2 C-3.375 -1.125 -3.375 -1.125 0 0 Z " fill="#093C85" transform="translate(14,10)"/>
<path d="M0 0 C2 2.5 2 2.5 3 5 C-0.3 4.67 -3.6 4.34 -7 4 C-7 6.64 -7 9.28 -7 12 C-5.35 12 -3.7 12 -2 12 C-1.67 11.34 -1.34 10.68 -1 10 C-1.99 10 -2.98 10 -4 10 C-4 9.01 -4 8.02 -4 7 C-1.69 7 0.62 7 3 7 C3 9.97 3 12.94 3 16 C-6.99003559 16.77508897 -6.99003559 16.77508897 -10.6875 13.9375 C-12.32225917 10.27875329 -12.57702173 7.96702438 -12 4 C-8.94757349 -0.96019307 -5.3262665 -0.76089521 0 0 Z " fill="#D6BD0F" transform="translate(107,174)"/>
<path d="M0 0 C1.32 0 2.64 0 4 0 C4.83719383 2.29032311 5.6698929 4.58210957 6.5 6.875 C6.73847656 7.52597656 6.97695312 8.17695313 7.22265625 8.84765625 C9 13.7734375 9 13.7734375 9 16 C7.68 15.67 6.36 15.34 5 15 C5 14.34 5 13.68 5 13 C2.02934491 13.34227572 2.02934491 13.34227572 -1 14 C-1.33 14.66 -1.66 15.32 -2 16 C-3.32 15.67 -4.64 15.34 -6 15 C-5.19093245 12.68624595 -4.37793083 10.37401052 -3.5625 8.0625 C-3.33240234 7.40314453 -3.10230469 6.74378906 -2.86523438 6.06445312 C-1.11328125 1.11328125 -1.11328125 1.11328125 0 0 Z " fill="#CCB714" transform="translate(165,174)"/>
<path d="M0 0 C2.70902496 2.09949435 4.73024693 3.7470973 5.47265625 7.1953125 C5.6153115 10.95396824 5.63745879 13.07975874 3.44140625 16.25 C0.14727025 18.61123668 -2.72548253 18.55329027 -6.625 18.4375 C-7.305625 18.44458984 -7.98625 18.45167969 -8.6875 18.45898438 C-10.6640625 18.43359375 -10.6640625 18.43359375 -14 18 C-14.66 17.01 -15.32 16.02 -16 15 C-14.948125 15.268125 -13.89625 15.53625 -12.8125 15.8125 C-8.93672265 16.409853 -8.93672265 16.409853 -6.25 13.9375 C-2.87932282 9.53689368 -0.80955445 5.50497025 0 0 Z " fill="#CB8C71" transform="translate(27,13)"/>
<path d="M0 0 C0.66 0.33 1.32 0.66 2 1 C2.309375 1.969375 2.61875 2.93875 2.9375 3.9375 C3.74744122 7.2680443 3.74744122 7.2680443 7 9 C6.01 9.495 6.01 9.495 5 10 C5.4162135 15.02742101 5.9329668 19.34917529 8 24 C8.12375 24.78375 8.2475 25.5675 8.375 26.375 C10.04274471 33.37952777 14.26996281 37.94122366 20 42 C21.31910782 42.6943895 22.64936903 43.36911316 24 44 C22.375 44.75 22.375 44.75 20 45 C11.98610591 40.81883787 7.72931017 34.56249947 4.94140625 26.10546875 C4.47541016 24.56826172 4.47541016 24.56826172 4 23 C3.63777344 21.82050781 3.27554687 20.64101563 2.90234375 19.42578125 C-1.7936541 3.58730821 -1.7936541 3.58730821 0 0 Z " fill="#D3BF34" transform="translate(1,2)"/>
<path d="M0 0 C3.63 0 7.26 0 11 0 C11 0.99 11 1.98 11 3 C8.36 3 5.72 3 3 3 C3 3.99 3 4.98 3 6 C5.64 6 8.28 6 11 6 C11 6.99 11 7.98 11 9 C8.36 9 5.72 9 3 9 C3 10.32 3 11.64 3 13 C5.97 13 8.94 13 12 13 C12 13.99 12 14.98 12 16 C8.04 16 4.08 16 0 16 C0 10.72 0 5.44 0 0 Z " fill="#E9C904" transform="translate(82,174)"/>
<path d="M0 0 C5.54050113 0.56825653 10.03715966 2.62886517 15 5 C14.34 7.64 13.68 10.28 13 13 C7.86057616 14.28485596 6.62164416 13.22194431 2 11 C2 7.7 2 4.4 2 1 C1.34 0.67 0.68 0.34 0 0 Z " fill="#8E8F3A" transform="translate(27,3)"/>
<path d="M0 0 C3.5625 0.3125 3.5625 0.3125 5.5 1.6875 C6.5625 3.3125 6.5625 3.3125 6.5625 5.3125 C5.2425 5.3125 3.9225 5.3125 2.5625 5.3125 C2.5625 4.6525 2.5625 3.9925 2.5625 3.3125 C0.9125 3.3125 -0.7375 3.3125 -2.4375 3.3125 C-2.4375 4.3025 -2.4375 5.2925 -2.4375 6.3125 C-1.32375 6.43625 -0.21 6.56 0.9375 6.6875 C4.5625 7.3125 4.5625 7.3125 6.5625 9.3125 C6.8125 11.8125 6.8125 11.8125 6.5625 14.3125 C4.5625 16.3125 4.5625 16.3125 0.625 16.625 C-2.10755991 16.56052944 -3.14632266 16.51268442 -5.4375 14.9375 C-6.4375 13.3125 -6.4375 13.3125 -6.4375 11.3125 C-5.1175 11.3125 -3.7975 11.3125 -2.4375 11.3125 C-2.1075 11.9725 -1.7775 12.6325 -1.4375 13.3125 C-0.1175 13.3125 1.2025 13.3125 2.5625 13.3125 C2.8925 12.3225 3.2225 11.3325 3.5625 10.3125 C2.99660156 10.17972656 2.43070313 10.04695312 1.84765625 9.91015625 C1.11417969 9.73355469 0.38070312 9.55695313 -0.375 9.375 C-1.10589844 9.20097656 -1.83679688 9.02695313 -2.58984375 8.84765625 C-4.4375 8.3125 -4.4375 8.3125 -5.4375 7.3125 C-5.625 4.875 -5.625 4.875 -5.4375 2.3125 C-3.4375 0.3125 -3.4375 0.3125 0 0 Z " fill="#E4C606" transform="translate(73.4375,173.6875)"/>
<path d="M0 0 C2.64 0 5.28 0 8 0 C8 1.32 8 2.64 8 4 C9.65 4 11.3 4 13 4 C13 2.68 13 1.36 13 0 C15.97 0 18.94 0 22 0 C19.78382901 4.43234199 17.35874289 6.64627884 13 9 C9.83837452 9.41238593 8.45675496 9.29812628 5.76171875 7.5390625 C5.07722656 6.90742187 4.39273437 6.27578125 3.6875 5.625 C2.99011719 4.99851562 2.29273438 4.37203125 1.57421875 3.7265625 C0 2 0 2 0 0 Z " fill="#093C85" transform="translate(13,36)"/>
<path d="M0 0 C0.99 0 1.98 0 3 0 C3.33 3.96 3.66 7.92 4 12 C5.65 12.33 7.3 12.66 9 13 C9 8.71 9 4.42 9 0 C9.99 0 10.98 0 12 0 C12.05384521 2.29141286 12.09272087 4.58318188 12.125 6.875 C12.14820312 8.15117187 12.17140625 9.42734375 12.1953125 10.7421875 C12 14 12 14 10 16 C8.125 16.265625 8.125 16.265625 6 16.25 C4.948125 16.25773437 4.948125 16.25773437 3.875 16.265625 C2 16 2 16 0 14 C-0.1953125 10.7421875 -0.1953125 10.7421875 -0.125 6.875 C-0.10695313 5.59367188 -0.08890625 4.31234375 -0.0703125 2.9921875 C-0.04710938 2.00476563 -0.02390625 1.01734375 0 0 Z " fill="#EBCA03" transform="translate(112,174)"/>
<path d="M0 0 C7.26 0 14.52 0 22 0 C22.33 0.99 22.66 1.98 23 3 C19.7 3 16.4 3 13 3 C13 4.32 13 5.64 13 7 C11.35 7 9.7 7 8 7 C8 5.68 8 4.36 8 3 C5.36 3 2.72 3 0 3 C0 2.01 0 1.02 0 0 Z " fill="#778143" transform="translate(13,33)"/>
<path d="M0 0 C1.8125 0.0625 1.8125 0.0625 4 1 C7.17659325 6.40578149 7.17659325 6.40578149 6.77026367 10.07397461 C6.18173003 12.24820256 5.47683973 14.32809088 4.6875 16.4375 C4.43548828 17.16904297 4.18347656 17.90058594 3.92382812 18.65429688 C3.30395068 20.4437544 2.65488793 22.22305653 2 24 C1.34 24 0.68 24 0 24 C0.10699219 23.24074219 0.21398438 22.48148438 0.32421875 21.69921875 C0.44410156 20.70535156 0.56398437 19.71148438 0.6875 18.6875 C0.81511719 17.70136719 0.94273438 16.71523438 1.07421875 15.69921875 C1.26981182 12.95631232 1.26981182 12.95631232 -0.48046875 11.14453125 C-0.98191406 10.76683594 -1.48335937 10.38914062 -2 10 C-1.01 10 -0.02 10 1 10 C1 8.02 1 6.04 1 4 C1.66 4 2.32 4 3 4 C3 3.34 3 2.68 3 2 C2.01 1.67 1.02 1.34 0 1 C0 0.67 0 0.34 0 0 Z " fill="#E1C621" transform="translate(39,6)"/>
<path d="M0 0 C2.97 0.99 5.94 1.98 9 3 C9.38218767 4.65614657 9.71395102 6.32457024 10 8 C9.67 8.33 9.34 8.66 9 9 C7.00390625 8.9140625 7.00390625 8.9140625 4.5625 8.625 C3.75941406 8.53476562 2.95632812 8.44453125 2.12890625 8.3515625 C0 8 0 8 -2 7 C-1.34 4.69 -0.68 2.38 0 0 Z " fill="#E5C606" transform="translate(172,43)"/>
<path d="M0 0 C0.66 0.33 1.32 0.66 2 1 C1.01 2.485 1.01 2.485 0 4 C1.65 3.67 3.3 3.34 5 3 C6 6 6 6 5 9 C5.66 8.67 6.32 8.34 7 8 C7.20970559 3.85906302 7.20970559 3.85906302 6 0 C6.99 0.33 7.98 0.66 9 1 C9.75 3.75 9.75 3.75 10 7 C8.4375 9.4375 8.4375 9.4375 6 11 C2.875 10.9375 2.875 10.9375 0 10 C-2 7 -2 7 -1.6875 3.875 C-1 1 -1 1 0 0 Z " fill="#CB727F" transform="translate(12,10)"/>
<path d="M0 0 C7.75 0.75 7.75 0.75 10 3 C9.625 5.625 9.625 5.625 9 8 C5.7 8 2.4 8 -1 8 C-0.67 5.36 -0.34 2.72 0 0 Z " fill="#E5C606" transform="translate(143,37)"/>
<path d="M0 0 C1.65 0 3.3 0 5 0 C7 2 7 2 7.25 5 C7 8 7 8 5 10 C3.35 10 1.7 10 0 10 C0 6.7 0 3.4 0 0 Z " fill="#0D3E82" transform="translate(179,177)"/>
<path d="M0 0 C1.2065625 0.0309375 1.2065625 0.0309375 2.4375 0.0625 C2.251875 0.660625 2.06625 1.25875 1.875 1.875 C1.21656313 4.22658762 1.21656313 4.22658762 2.4375 7.0625 C-1.22916667 7.0625 -4.89583333 7.0625 -8.5625 7.0625 C-8.5625 5.0825 -8.5625 3.1025 -8.5625 1.0625 C-7.3559375 1.0934375 -7.3559375 1.0934375 -6.125 1.125 C-3.0866539 1.050894 -3.0383461 0.074106 0 0 Z " fill="#A6B8D6" transform="translate(122.5625,193.9375)"/>
<path d="M0 0 C3 1 3 1 5 4 C8.28117836 4.51158503 8.28117836 4.51158503 12 4.5625 C18.7921527 4.7921527 18.7921527 4.7921527 21 7 C18.69 7 16.38 7 14 7 C13.67 7.66 13.34 8.32 13 9 C13 8.34 13 7.68 13 7 C10.36 7 7.72 7 5 7 C4.67 8.32 4.34 9.64 4 11 C3.32591692 9.73308493 2.66099503 8.46129251 2 7.1875 C1.62875 6.47980469 1.2575 5.77210937 0.875 5.04296875 C0 3 0 3 0 0 Z " fill="#315575" transform="translate(8,26)"/>
<path d="M0 0 C1.65 0 3.3 0 5 0 C6 1 6 1 6.1328125 2.8125 C6.13023437 3.534375 6.12765625 4.25625 6.125 5 C6.12757813 5.721875 6.13015625 6.44375 6.1328125 7.1875 C6 9 6 9 5 10 C3.35 10 1.7 10 0 10 C0 6.7 0 3.4 0 0 Z " fill="#073A85" transform="translate(150,177)"/>
<path d="M0 0 C2.31 0 4.62 0 7 0 C5.68 0.33 4.36 0.66 3 1 C3 2.65 3 4.3 3 6 C4.65 6 6.3 6 8 6 C7.67 6.66 7.34 7.32 7 8 C5.68 8 4.36 8 3 8 C3 10.31 3 12.62 3 15 C2.01 15 1.02 15 0 15 C0 10.05 0 5.1 0 0 Z " fill="#E6C706" transform="translate(127,175)"/>
<path d="M0 0 C1.05445313 0.00515625 2.10890625 0.0103125 3.1953125 0.015625 C4.76925781 0.00789062 4.76925781 0.00789062 6.375 0 C9.23630361 0.2580486 10.89308159 0.7881801 13.3203125 2.265625 C10.3203125 4.265625 10.3203125 4.265625 8.3203125 4.265625 C7.9903125 4.925625 7.6603125 5.585625 7.3203125 6.265625 C6.9903125 5.935625 6.6603125 5.605625 6.3203125 5.265625 C5.9903125 5.925625 5.6603125 6.585625 5.3203125 7.265625 C2.6803125 6.605625 0.0403125 5.945625 -2.6796875 5.265625 C-1.6896875 4.935625 -0.6996875 4.605625 0.3203125 4.265625 C0.3203125 3.605625 0.3203125 2.945625 0.3203125 2.265625 C1.3103125 2.265625 2.3003125 2.265625 3.3203125 2.265625 C3.6503125 3.255625 3.9803125 4.245625 4.3203125 5.265625 C4.3203125 4.275625 4.3203125 3.285625 4.3203125 2.265625 C1.3503125 2.265625 -1.6196875 2.265625 -4.6796875 2.265625 C-2.6796875 0.265625 -2.6796875 0.265625 0 0 Z " fill="#3A5A67" transform="translate(12.6796875,1.734375)"/>
<path d="M0 0 C0.33 0 0.66 0 1 0 C1 5.28 1 10.56 1 16 C-1 12 -1 12 -1.6875 9.875 C-3.76605585 6.9056345 -6.59318726 6.7570695 -10 6 C-10 5.01 -10 4.02 -10 3 C-8.35 3 -6.7 3 -5 3 C-5 3.66 -5 4.32 -5 5 C-3.68 4.67 -2.36 4.34 -1 4 C-0.67 2.68 -0.34 1.36 0 0 Z " fill="#0F3F81" transform="translate(81,174)"/>
<path d="M0 0 C2.625 0.375 2.625 0.375 5 1 C4.75 4.375 4.75 4.375 4 8 C1.9375 9.4375 1.9375 9.4375 0 10 C-0.33333333 8.66666667 -0.66666667 7.33333333 -1 6 C-1.226875 5.29875 -1.45375 4.5975 -1.6875 3.875 C-1.790625 3.25625 -1.89375 2.6375 -2 2 C-1.34 1.34 -0.68 0.68 0 0 Z " fill="#BCCAE0" transform="translate(122,203)"/>
<path d="M0 0 C0.99 0 1.98 0 3 0 C3 5.28 3 10.56 3 16 C2.01 16 1.02 16 0 16 C0 10.72 0 5.44 0 0 Z " fill="#EBCA03" transform="translate(141,174)"/>
<path d="M0 0 C2.0625 0.4375 2.0625 0.4375 4 1 C4.6875 2.6875 4.6875 2.6875 5 5 C3.6875 7.75 3.6875 7.75 2 10 C1.34 10 0.68 10 0 10 C0.33 8.68 0.66 7.36 1 6 C0.01 5.67 -0.98 5.34 -2 5 C-1.125 1.125 -1.125 1.125 0 0 Z " fill="#F0F3F8" transform="translate(130,203)"/>
<path d="M0 0 C1.65 0.33 3.3 0.66 5 1 C4.125 5.875 4.125 5.875 3 7 C3.66 7.33 4.32 7.66 5 8 C5 8.66 5 9.32 5 10 C3.02 10 1.04 10 -1 10 C-0.40072174 6.64404172 0.84622436 4.62198774 3 2 C1.68 2.33 0.36 2.66 -1 3 C-0.67 2.01 -0.34 1.02 0 0 Z " fill="#E3E9F2" transform="translate(137,203)"/>
<path d="M0 0 C-0.33 1.65 -0.66 3.3 -1 5 C-4.76624671 6.25541557 -6.37188934 5.37061958 -10 4 C-9.67 3.01 -9.34 2.02 -9 1 C-6.03421164 -0.16513114 -3.15436364 -0.08762121 0 0 Z " fill="#8C8E38" transform="translate(28,5)"/>
<path d="M0 0 C6.48292295 -0.3669579 6.48292295 -0.3669579 8.9375 1.375 C10 3 10 3 10 5 C8.68 5 7.36 5 6 5 C6 4.34 6 3.68 6 3 C4.35 3 2.7 3 1 3 C0.67 3.66 0.34 4.32 0 5 C-0.66 4.67 -1.32 4.34 -2 4 C-1.34 2.68 -0.68 1.36 0 0 Z " fill="#D5BC0F" transform="translate(70,174)"/>
<path d="M0 0 C0.66 0.33 1.32 0.66 2 1 C2.309375 1.969375 2.61875 2.93875 2.9375 3.9375 C3.74744122 7.2680443 3.74744122 7.2680443 7 9 C4.03 11.475 4.03 11.475 1 14 C0.63794536 12.04310963 0.28558579 10.08442332 -0.0625 8.125 C-0.25972656 7.03445312 -0.45695313 5.94390625 -0.66015625 4.8203125 C-1 2 -1 2 0 0 Z " fill="#DEC740" transform="translate(1,2)"/>
<path d="M0 0 C4.875 0.875 4.875 0.875 6 2 C6.04080783 3.99958364 6.04254356 6.00045254 6 8 C5.01 8.33 4.02 8.66 3 9 C3 7.35 3 5.7 3 4 C1.35 4 -0.3 4 -2 4 C-1.34 2.68 -0.68 1.36 0 0 Z " fill="#C2121E" transform="translate(14,10)"/>
<path d="M0 0 C2.31 0 4.62 0 7 0 C6.01 0.495 6.01 0.495 5 1 C5 1.99 5 2.98 5 4 C4.01 3.67 3.02 3.34 2 3 C2.66 3 3.32 3 4 3 C4 2.34 4 1.68 4 1 C3.01 1 2.02 1 1 1 C0.67 1.99 0.34 2.98 0 4 C1.98 4.66 3.96 5.32 6 6 C2.61981469 7.04005702 -0.4780279 7.08004482 -4 7 C-3.67 5.35 -3.34 3.7 -3 2 C-2.01 2 -1.02 2 0 2 C0 1.34 0 0.68 0 0 Z " fill="#A29F41" transform="translate(12,3)"/>
<path d="M0 0 C1.95803507 -0.05389087 3.91648909 -0.09274217 5.875 -0.125 C7.51082031 -0.15980469 7.51082031 -0.15980469 9.1796875 -0.1953125 C12 0 12 0 14 2 C12.35 2 10.7 2 9 2 C8.67 2.99 8.34 3.98 8 5 C7.01 4.67 6.02 4.34 5 4 C5 3.34 5 2.68 5 2 C3.35 2 1.7 2 0 2 C0 1.34 0 0.68 0 0 Z " fill="#6A7C65" transform="translate(9,22)"/>
<path d="M0 0 C1.50560497 2.85410334 2.63216796 5.68124642 3.625 8.75 C3.88539063 9.54921875 4.14578125 10.3484375 4.4140625 11.171875 C4.60742188 11.77515625 4.80078125 12.3784375 5 13 C4.01 13.33 3.02 13.66 2 14 C-1.52529183 5.33365759 -1.52529183 5.33365759 -1 1 C-0.67 0.67 -0.34 0.34 0 0 Z " fill="#C7B633" transform="translate(4,13)"/>
<path d="M0 0 C0.66 1.32 1.32 2.64 2 4 C-0.3125 6.5 -0.3125 6.5 -3 9 C-3.99 9 -4.98 9 -6 9 C-6.33 9.99 -6.66 10.98 -7 12 C-7.99 11.67 -8.98 11.34 -10 11 C-9.278125 10.484375 -8.55625 9.96875 -7.8125 9.4375 C-4.49943158 6.56617403 -2.44284263 3.6293662 0 0 Z " fill="#CEBA34" transform="translate(36,34)"/>
<path d="M0 0 C2.475 0.495 2.475 0.495 5 1 C5 2.65 5 4.3 5 6 C3.35 6.33 1.7 6.66 0 7 C0 4.69 0 2.38 0 0 Z " fill="#9AAFD0" transform="translate(131,194)"/>
<path d="M0 0 C1.89492188 0.01353516 1.89492188 0.01353516 3.828125 0.02734375 C4.79234375 0.03894531 5.7565625 0.05054688 6.75 0.0625 C6.75 0.3925 6.75 0.7225 6.75 1.0625 C6.01394531 1.19527344 5.27789063 1.32804688 4.51953125 1.46484375 C3.54371094 1.64144531 2.56789063 1.81804688 1.5625 2 C0.59957031 2.17402344 -0.36335937 2.34804688 -1.35546875 2.52734375 C-3.99239972 3.0148735 -6.6219905 3.52921105 -9.25 4.0625 C-9.91 3.0725 -10.57 2.0825 -11.25 1.0625 C-7.49600202 -0.1414337 -3.91782588 -0.03627617 0 0 Z " fill="#C8BB57" transform="translate(14.25,-0.0625)"/>
<path d="M0 0 C1.10844919 3.32534757 0.84454356 5.62182575 0 9 C-2.31 9 -4.62 9 -7 9 C-6.57847656 8.51789062 -6.15695313 8.03578125 -5.72265625 7.5390625 C-5.17480469 6.90742188 -4.62695312 6.27578125 -4.0625 5.625 C-3.51722656 4.99851562 -2.97195312 4.37203125 -2.41015625 3.7265625 C-0.93041376 2.04367666 -0.93041376 2.04367666 0 0 Z " fill="#CF7C33" transform="translate(25,21)"/>
<path d="M0 0 C5.34844008 0.53484401 9.35796103 2.46690767 14 5 C11.18185434 6.40907283 9.82722796 5.50872691 6.875 4.5625 C5.96492188 4.27503906 5.05484375 3.98757812 4.1171875 3.69140625 C3.41851563 3.46324219 2.71984375 3.23507812 2 3 C2 2.34 2 1.68 2 1 C1.34 0.67 0.68 0.34 0 0 Z " fill="#264E77" transform="translate(27,3)"/>
<path d="M0 0 C0.66 0.33 1.32 0.66 2 1 C1.01 2.485 1.01 2.485 0 4 C1.65 3.67 3.3 3.34 5 3 C5 4.32 5 5.64 5 7 C3.02 6.34 1.04 5.68 -1 5 C-1.33 5.66 -1.66 6.32 -2 7 C-1.125 1.125 -1.125 1.125 0 0 Z " fill="#DBA1AA" transform="translate(12,10)"/>
<path d="M0 0 C0.66 0 1.32 0 2 0 C2 3.3 2 6.6 2 10 C1.34 10 0.68 10 0 10 C-0.54372951 6.94152152 -1 4.11227195 -1 1 C-0.67 0.67 -0.34 0.34 0 0 Z " fill="#EFF2F7" transform="translate(116,203)"/>
<path d="M0 0 C1.32 0 2.64 0 4 0 C4 2.31 4 4.62 4 7 C2.68 7 1.36 7 0 7 C0 4.69 0 2.38 0 0 Z " fill="#C5D1E4" transform="translate(137,194)"/>
<path d="M0 0 C1.98 0 3.96 0 6 0 C6 1.32 6 2.64 6 4 C4.02 4 2.04 4 0 4 C0 2.68 0 1.36 0 0 Z " fill="#0A3C83" transform="translate(130,177)"/>
<path d="M0 0 C1.62463842 -0.05395478 3.24978541 -0.09277195 4.875 -0.125 C5.77992187 -0.14820312 6.68484375 -0.17140625 7.6171875 -0.1953125 C10 0 10 0 12 2 C9.69 2 7.38 2 5 2 C4.67 2.66 4.34 3.32 4 4 C4 3.34 4 2.68 4 2 C2.68 2 1.36 2 0 2 C0 1.34 0 0.68 0 0 Z " fill="#245089" transform="translate(17,31)"/>
<path d="M0 0 C1.32 0 2.64 0 4 0 C3.75 1.875 3.75 1.875 3 4 C0.9375 5.25 0.9375 5.25 -1 6 C-1.042721 4.33388095 -1.04063832 2.66617115 -1 1 C-0.67 0.67 -0.34 0.34 0 0 Z " fill="#C00B18" transform="translate(26,24)"/>
<path d="M0 0 C1.65 0 3.3 0 5 0 C3.62845496 2.95409701 2.01136276 5.44008376 0 8 C-0.79953138 4.71303767 -1.09658936 3.28976808 0 0 Z " fill="#194995" transform="translate(135,205)"/>
<path d="M0 0 C2.0625 0.25 2.0625 0.25 4 1 C4.33 1.66 4.66 2.32 5 3 C4.34 3 3.68 3 3 3 C3 3.66 3 4.32 3 5 C2.01 5 1.02 5 0 5 C0 4.34 0 3.68 0 3 C-0.66 2.67 -1.32 2.34 -2 2 C-1.34 1.34 -0.68 0.68 0 0 Z " fill="#9BB0D1" transform="translate(130,203)"/>
<path d="M0 0 C0.99 0 1.98 0 3 0 C3.33 1.98 3.66 3.96 4 6 C2.68 6.33 1.36 6.66 0 7 C-1.125 2.25 -1.125 2.25 0 0 Z " fill="#C5D1E4" transform="translate(126,194)"/>
<path d="M0 0 C1.65 0 3.3 0 5 0 C4.67 1.32 4.34 2.64 4 4 C2.68 4.33 1.36 4.66 0 5 C0 3.35 0 1.7 0 0 Z " fill="#C41A26" transform="translate(129,121)"/>
<path d="M0 0 C5 2 5 2 10 4 C8.02 4.99 8.02 4.99 6 6 C3.96166576 4.7260411 1.96147874 3.38938077 0 2 C0 1.34 0 0.68 0 0 Z " fill="#D3BD25" transform="translate(15,41)"/>
<path d="M0 0 C1.65 0 3.3 0 5 0 C5 1.32 5 2.64 5 4 C3.35 4 1.7 4 0 4 C0 2.68 0 1.36 0 0 Z " fill="#5F80B4" transform="translate(21,36)"/>
<path d="M0 0 C1.98 0 3.96 0 6 0 C6.33 0.99 6.66 1.98 7 3 C4.69 3 2.38 3 0 3 C0 2.01 0 1.02 0 0 Z " fill="#68774C" transform="translate(29,33)"/>
<path d="M0 0 C1.65 0 3.3 0 5 0 C5 1.65 5 3.3 5 5 C3.0625 4.1875 3.0625 4.1875 1 3 C0.67 2.01 0.34 1.02 0 0 Z " fill="#C00B18" transform="translate(122,121)"/>
<path d="M0 0 C1.9375 0.8125 1.9375 0.8125 4 2 C4.33 2.99 4.66 3.98 5 5 C3.35 5 1.7 5 0 5 C0 3.35 0 1.7 0 0 Z " fill="#C31722" transform="translate(129,113)"/>
<path d="M0 0 C0.66 0 1.32 0 2 0 C2 1.65 2 3.3 2 5 C0.35 5 -1.3 5 -3 5 C-1.125 1.125 -1.125 1.125 0 0 Z " fill="#C10D19" transform="translate(125,113)"/>
<path d="M0 0 C1.98 0.495 1.98 0.495 4 1 C3.67 2.98 3.34 4.96 3 7 C2.67 6.01 2.34 5.02 2 4 C1.01 4.33 0.02 4.66 -1 5 C-0.67 3.35 -0.34 1.7 0 0 Z " fill="#37596B" transform="translate(31,7)"/>
<path d="M0 0 C2 3 2 3 1.625 6.1875 C1.41875 7.115625 1.2125 8.04375 1 9 C0.01 8.34 -0.98 7.68 -2 7 C-1.34 4.69 -0.68 2.38 0 0 Z " fill="#EAC904" transform="translate(28,5)"/>
<path d="M0 0 C2.97 0.99 5.94 1.98 9 3 C8.01 3.66 7.02 4.32 6 5 C3.375 4.3125 3.375 4.3125 1 3 C0.67 2.01 0.34 1.02 0 0 Z " fill="#C8B83A" transform="translate(32,2)"/>
</svg>
